<svg xmlns="http://www.w3.org/2000/svg" xmlns:xlink="http://www.w3.org/1999/xlink" width="60" zoomAndPan="magnify" viewBox="0 0 45 44.999999" height="60" preserveAspectRatio="xMidYMid meet" version="1.0"><defs><clipPath id="881367ca49"><path d="M 0 0.28125 L 45 0.28125 L 45 44.53125 L 0 44.53125 Z M 0 0.28125 " clip-rule="nonzero"/></clipPath></defs><rect x="-4.5" width="54" fill="#ffffff" y="-4.5" height="53.999999" fill-opacity="1"/><rect x="-4.5" width="54" fill="#ffffff" y="-4.5" height="53.999999" fill-opacity="1"/><path fill="#a378ff" d="M 17.785156 9.933594 C 17.253906 11.289062 15.707031 11.964844 14.332031 11.445312 C 12.957031 10.925781 12.273438 9.398438 12.808594 8.042969 C 13.339844 6.6875 14.882812 6.015625 16.257812 6.535156 C 17.636719 7.058594 18.316406 8.582031 17.785156 9.933594 Z M 17.785156 9.933594 " fill-opacity="1" fill-rule="evenodd"/><g clip-path="url(#881367ca49)"><path fill="#a378ff" d="M 28.265625 30.75 C 28.691406 30.785156 29.121094 30.980469 29.574219 31.433594 L 40.429688 42.351562 L 36.011719 42.351562 Z M 17.46875 23.570312 C 17.757812 23.5625 18.105469 23.621094 18.519531 23.765625 C 20.183594 24.324219 20.875 25.113281 21.285156 25.835938 C 21.789062 26.722656 21.917969 28.136719 22.015625 30.617188 C 22.027344 30.824219 22.082031 30.992188 22.160156 31.140625 L 19.460938 32.695312 C 18.054688 33.507812 17.183594 33.800781 15.472656 33.800781 L 15.386719 33.800781 C 15.679688 30.765625 15.996094 27.894531 16.1875 25.257812 C 16.257812 24.25 16.601562 23.597656 17.46875 23.570312 Z M 30.6875 0.28125 C 30.589844 0.265625 30.460938 0.296875 30.308594 0.378906 C 27.636719 1.820312 25.097656 1.132812 22.398438 2.574219 C 22.296875 2.386719 22.097656 2.273438 21.886719 2.277344 C 21.503906 2.285156 21.132812 2.703125 21.253906 3.070312 L 25.050781 15.308594 C 24.070312 16.277344 23.324219 16.542969 22.429688 16.421875 C 21.519531 16.296875 20.386719 15.628906 19.140625 14.113281 C 18.222656 12.996094 16.898438 12.671875 15.792969 12.621094 C 14.6875 12.570312 13.667969 12.695312 12.933594 12.621094 C 11.375 12.460938 10.195312 11.695312 9.304688 10.449219 C 8.414062 9.203125 7.875 7.457031 7.59375 5.523438 C 7.359375 3.878906 5.433594 4.449219 5.5 5.605469 C 5.761719 10.308594 8.117188 14.5 12.9375 15.441406 C 13.664062 20.222656 13.75 26.527344 13.085938 33.800781 L 12.527344 33.800781 C 10.210938 33.800781 9.621094 34.273438 7.820312 35.988281 L 0.472656 42.992188 C -0.0117188 43.453125 0.160156 44.6875 1.027344 44.6875 L 44.054688 44.6875 C 44.703125 44.6875 45.015625 43.644531 44.367188 42.992188 L 30.730469 29.285156 C 29.328125 27.871094 27.410156 28.105469 25.375 29.285156 L 24.273438 29.917969 C 24.1875 27.753906 24.082031 26.128906 23.273438 24.707031 C 22.484375 23.316406 20.996094 22.144531 18.851562 21.21875 L 18.53125 16.804688 C 19.664062 17.859375 20.855469 18.515625 22.121094 18.6875 C 23.445312 18.871094 24.640625 18.5 25.785156 17.675781 L 28.152344 25.304688 C 28.390625 26.074219 29.582031 25.695312 29.339844 24.925781 L 26.832031 16.824219 C 26.832031 16.820312 26.835938 16.820312 26.835938 16.816406 C 27.621094 16.050781 27.019531 15.007812 26.222656 14.855469 L 24.109375 8.039062 C 26.808594 6.601562 29.347656 7.277344 32.035156 5.839844 C 32.441406 5.621094 32.449219 5.476562 32.328125 5.097656 L 30.894531 0.460938 C 30.859375 0.351562 30.789062 0.292969 30.6875 0.28125 Z M 30.6875 0.28125 " fill-opacity="1" fill-rule="nonzero"/></g></svg>